<svg width="200" height="60" viewBox="0 0 200 60" fill="none" xmlns="http://www.w3.org/2000/svg">
  <path d="M50.304 46H40.848V14.8H50.304C54.416 14.8 57.76 15.904 60.336 18.112C62.912 20.288 64.2 23.296 64.2 27.136V33.664C64.2 37.504 62.912 40.528 60.336 42.736C57.76 44.912 54.416 46 50.304 46ZM50.304 20.24H46.944V40.56H50.304C52.48 40.56 54.144 39.952 55.296 38.736C56.448 37.52 57.024 35.824 57.024 33.648V27.152C57.024 24.976 56.448 23.28 55.296 22.064C54.144 20.848 52.48 20.24 50.304 20.24ZM74.9565 46.288C72.7565 46.288 70.9645 45.664 69.5805 44.416C68.1965 43.168 67.5045 41.488 67.5045 39.376V21.424C67.5045 19.312 68.1965 17.632 69.5805 16.384C70.9645 15.136 72.7565 14.512 74.9565 14.512C77.1565 14.512 78.9485 15.136 80.3325 16.384C81.7165 17.632 82.4085 19.312 82.4085 21.424V39.376C82.4085 41.488 81.7165 43.168 80.3325 44.416C78.9485 45.664 77.1565 46.288 74.9565 46.288ZM74.9565 41.28C76.2045 41.28 76.8285 40.48 76.8285 38.88V21.92C76.8285 20.32 76.2045 19.52 74.9565 19.52C73.7085 19.52 73.0845 20.32 73.0845 21.92V38.88C73.0845 40.48 73.7085 41.28 74.9565 41.28ZM92.0348 46.288C89.8348 46.288 88.0428 45.664 86.6588 44.416C85.2748 43.168 84.5828 41.488 84.5828 39.376V21.424C84.5828 19.312 85.2748 17.632 86.6588 16.384C88.0428 15.136 89.8348 14.512 92.0348 14.512C94.2348 14.512 96.0268 15.136 97.4108 16.384C98.7948 17.632 99.4868 19.312 99.4868 21.424V39.376C99.4868 41.488 98.7948 43.168 97.4108 44.416C96.0268 45.664 94.2348 46.288 92.0348 46.288ZM92.0348 41.28C93.2828 41.28 93.9068 40.48 93.9068 38.88V21.92C93.9068 20.32 93.2828 19.52 92.0348 19.52C90.7868 19.52 90.1628 20.32 90.1628 21.92V38.88C90.1628 40.48 90.7868 41.28 92.0348 41.28ZM107.813 46.288C106.613 46.288 105.621 45.888 104.837 45.088C104.053 44.288 103.661 43.296 103.661 42.112V41.664C103.661 40.752 103.901 39.856 104.381 38.976C104.861 38.096 105.645 37.024 106.733 35.76L111.349 30.448C112.309 29.344 112.789 28.24 112.789 27.136C112.789 25.568 112.165 24.784 110.917 24.784C109.669 24.784 109.045 25.584 109.045 27.184V28.496H103.853V27.072C103.853 24.896 104.597 23.184 106.085 21.936C107.573 20.688 109.381 20.064 111.509 20.064C113.637 20.064 115.413 20.672 116.837 21.888C118.261 23.104 118.973 24.816 118.973 27.024C118.973 28.24 118.717 29.344 118.205 30.336C117.693 31.328 116.725 32.544 115.301 33.984L111.653 37.872C111.061 38.528 110.741 39.104 110.693 39.6H119.021V46H107.813V46.288ZM138.954 46H127.18V40.88L132.412 20.384H126.348V14.8H138.97V20.032L133.738 40.416H138.954V46ZM160.122 14.8V46H154.106V34.192H149.138V46H143.122V14.8H149.138V28.608H154.106V14.8H160.122Z" fill="#333333"/>
  <path d="M166.532 46H160.996V14.8H166.532C170.644 14.8 173.988 15.904 176.564 18.112C179.14 20.288 180.428 23.296 180.428 27.136V33.664C180.428 37.504 179.14 40.528 176.564 42.736C173.988 44.912 170.644 46 166.532 46ZM166.532 20.24H167.012V40.56H166.532C164.356 40.56 162.692 39.952 161.54 38.736C160.388 37.52 159.812 35.824 159.812 33.648V27.152C159.812 24.976 160.388 23.28 161.54 22.064C162.692 20.848 164.356 20.24 166.532 20.24Z" fill="#FFB000"/>
</svg>
